<svg width="56" height="56" viewBox="0 0 56 56" fill="none" xmlns="http://www.w3.org/2000/svg">
  <!-- Background -->
  <rect width="56" height="56" rx="12" fill="url(#docGradient)"/>
  
  <!-- Back document -->
  <path d="M18 14C16.8954 14 16 14.8954 16 16V40C16 41.1046 16.8954 42 18 42H38C39.1046 42 40 41.1046 40 40V22L32 14H18Z" fill="white" opacity="0.8"/>
  
  <!-- Front document -->
  <path d="M20 10C18.8954 10 18 10.8954 18 12V36C18 37.1046 18.8954 38 20 38H40C41.1046 38 42 37.1046 42 36V18L34 10H20Z" fill="white"/>
  
  <!-- Folded corners -->
  <path d="M32 14V22H40L32 14Z" fill="#E5E7EB" opacity="0.8"/>
  <path d="M34 10V18H42L34 10Z" fill="#E5E7EB"/>
  
  <!-- Text lines on front document -->
  <rect x="22" y="20" width="14" height="1" rx="0.5" fill="#374151"/>
  <rect x="22" y="24" width="16" height="1" rx="0.5" fill="#374151"/>
  <rect x="22" y="28" width="12" height="1" rx="0.5" fill="#374151"/>
  <rect x="22" y="32" width="10" height="1" rx="0.5" fill="#6B7280"/>
  
  <!-- Shadow -->
  <ellipse cx="28" cy="52" rx="20" ry="2" fill="black" opacity="0.1"/>
  
  <defs>
    <linearGradient id="docGradient" x1="28" y1="0" x2="28" y2="56" gradientUnits="userSpaceOnUse">
      <stop stop-color="#F3F4F6"/>
      <stop offset="1" stop-color="#D1D5DB"/>
    </linearGradient>
  </defs>
</svg>