<svg width="56" height="56" viewBox="0 0 56 56" fill="none" xmlns="http://www.w3.org/2000/svg">
  <!-- Background -->
  <rect width="56" height="56" rx="12" fill="url(#fileGradient)"/>
  
  <!-- Document shape -->
  <path d="M16 12C14.8954 12 14 12.8954 14 14V42C14 43.1046 14.8954 44 16 44H40C41.1046 44 42 43.1046 42 42V20L34 12H16Z" fill="white"/>
  
  <!-- Folded corner -->
  <path d="M34 12V20H42L34 12Z" fill="#E5E7EB"/>
  
  <!-- Text lines -->
  <rect x="18" y="24" width="16" height="1" rx="0.5" fill="#9CA3AF"/>
  <rect x="18" y="28" width="20" height="1" rx="0.5" fill="#9CA3AF"/>
  <rect x="18" y="32" width="18" height="1" rx="0.5" fill="#9CA3AF"/>
  <rect x="18" y="36" width="14" height="1" rx="0.5" fill="#9CA3AF"/>
  
  <!-- Shadow -->
  <ellipse cx="28" cy="52" rx="20" ry="2" fill="black" opacity="0.1"/>
  
  <defs>
    <linearGradient id="fileGradient" x1="28" y1="0" x2="28" y2="56" gradientUnits="userSpaceOnUse">
      <stop stop-color="#60A5FA"/>
      <stop offset="1" stop-color="#2563EB"/>
    </linearGradient>
  </defs>
</svg>