<svg width="64" height="64" viewBox="0 0 64 64" fill="none" xmlns="http://www.w3.org/2000/svg">
  <!-- Background -->
  <rect width="64" height="64" rx="14" fill="url(#finderBg)"/>
  
  <!-- Folder back -->
  <path d="M12 20C12 17.7909 13.7909 16 16 16H28L32 20H48C50.2091 20 52 21.7909 52 24V44C52 46.2091 50.2091 48 48 48H16C13.7909 48 12 46.2091 12 44V20Z" fill="url(#folderBack)"/>
  
  <!-- Folder front -->
  <path d="M12 24C12 21.7909 13.7909 20 16 20H28L32 24H48C50.2091 24 52 25.7909 52 28V44C52 46.2091 50.2091 48 48 48H16C13.7909 48 12 46.2091 12 44V24Z" fill="url(#folderFront)"/>
  
  <!-- Finder face - left eye -->
  <circle cx="26" cy="32" r="2" fill="white"/>
  <circle cx="26" cy="32" r="1.2" fill="#1E40AF"/>
  
  <!-- Finder face - right eye -->
  <circle cx="38" cy="32" r="2" fill="white"/>
  <circle cx="38" cy="32" r="1.2" fill="#1E40AF"/>
  
  <!-- Finder face - smile -->
  <path d="M22 38C22 35.7909 25.5817 34 32 34C38.4183 34 42 35.7909 42 38" stroke="white" stroke-width="2" stroke-linecap="round" fill="none"/>
  
  <!-- Highlight -->
  <path d="M16 24H28L32 28H48C49.1046 28 50 28.8954 50 30V32H48C46.8954 32 46 31.1046 46 30H32L28 26H16C14.8954 26 14 25.1046 14 24C14 25.1046 14.8954 26 16 26Z" fill="url(#highlight)" opacity="0.6"/>
  
  <!-- Shadow -->
  <ellipse cx="32" cy="62" rx="24" ry="2" fill="black" opacity="0.15"/>
  
  <defs>
    <linearGradient id="finderBg" x1="32" y1="0" x2="32" y2="64" gradientUnits="userSpaceOnUse">
      <stop stop-color="#60A5FA"/>
      <stop offset="1" stop-color="#2563EB"/>
    </linearGradient>
    <linearGradient id="folderBack" x1="32" y1="16" x2="32" y2="48" gradientUnits="userSpaceOnUse">
      <stop stop-color="#93C5FD"/>
      <stop offset="1" stop-color="#3B82F6"/>
    </linearGradient>
    <linearGradient id="folderFront" x1="32" y1="20" x2="32" y2="48" gradientUnits="userSpaceOnUse">
      <stop stop-color="#60A5FA"/>
      <stop offset="1" stop-color="#1D4ED8"/>
    </linearGradient>
    <linearGradient id="highlight" x1="32" y1="24" x2="32" y2="32" gradientUnits="userSpaceOnUse">
      <stop stop-color="white" stop-opacity="0.8"/>
      <stop offset="1" stop-color="white" stop-opacity="0"/>
    </linearGradient>
  </defs>
</svg>