<svg width="64" height="48" viewBox="0 0 64 48" fill="none" xmlns="http://www.w3.org/2000/svg">
  <!-- Shadow -->
  <ellipse cx="32" cy="46" rx="28" ry="2" fill="black" opacity="0.1"/>
  
  <!-- Folder back part -->
  <path d="M6 10C6 7.79086 7.79086 6 10 6H22L26 10H54C56.2091 10 58 11.7909 58 14V38C58 40.2091 56.2091 42 54 42H10C7.79086 42 6 40.2091 6 38V10Z" fill="url(#folderBack)"/>
  
  <!-- Folder front part -->
  <path d="M6 14C6 11.7909 7.79086 10 10 10H22L26 14H54C56.2091 14 58 15.7909 58 18V38C58 40.2091 56.2091 42 54 42H10C7.79086 42 6 40.2091 6 38V14Z" fill="url(#folderFront)"/>
  
  <!-- Code icon overlay -->
  <rect x="26" y="22" width="12" height="8" rx="1" fill="white" opacity="0.9"/>
  <text x="32" y="28" text-anchor="middle" fill="#10B981" font-family="monospace" font-size="6" font-weight="bold">&lt;/&gt;</text>
  
  <defs>
    <linearGradient id="folderBack" x1="32" y1="6" x2="32" y2="42" gradientUnits="userSpaceOnUse">
      <stop stop-color="#A7F3D0"/>
      <stop offset="1" stop-color="#10B981"/>
    </linearGradient>
    <linearGradient id="folderFront" x1="32" y1="10" x2="32" y2="42" gradientUnits="userSpaceOnUse">
      <stop stop-color="#6EE7B7"/>
      <stop offset="1" stop-color="#059669"/>
    </linearGradient>
  </defs>
</svg>