<svg width="64" height="64" viewBox="0 0 64 64" fill="none" xmlns="http://www.w3.org/2000/svg">
  <!-- Shadow -->
  <ellipse cx="32" cy="60" rx="28" ry="3" fill="black" opacity="0.15"/>
  
  <!-- Folder back -->
  <path d="M8 16C8 13.7909 9.79086 12 12 12H24L28 16H52C54.2091 16 56 17.7909 56 20V48C56 50.2091 54.2091 52 52 52H12C9.79086 52 8 50.2091 8 48V16Z" fill="url(#folderGradient1)"/>
  
  <!-- Folder front -->
  <path d="M8 20C8 17.7909 9.79086 16 12 16H24L28 20H52C54.2091 20 56 21.7909 56 24V48C56 50.2091 54.2091 52 52 52H12C9.79086 52 8 50.2091 8 48V20Z" fill="url(#folderGradient2)"/>
  
  <!-- Document icon overlay -->
  <rect x="30" y="28" width="10" height="12" rx="1" fill="white" opacity="0.95"/>
  <rect x="31" y="30" width="8" height="1" fill="#3D7FBB" opacity="0.7"/>
  <rect x="31" y="32" width="8" height="1" fill="#3D7FBB" opacity="0.7"/>
  <rect x="31" y="34" width="6" height="1" fill="#3D7FBB" opacity="0.7"/>
  <rect x="31" y="36" width="5" height="1" fill="#3D7FBB" opacity="0.5"/>
  
  <defs>
    <linearGradient id="folderGradient1" x1="32" y1="12" x2="32" y2="52" gradientUnits="userSpaceOnUse">
      <stop stop-color="#86CAF4"/>
      <stop offset="1" stop-color="#4A92CB"/>
    </linearGradient>
    <linearGradient id="folderGradient2" x1="32" y1="16" x2="32" y2="52" gradientUnits="userSpaceOnUse">
      <stop stop-color="#86CAF4"/>
      <stop offset="1" stop-color="#3D7FBB"/>
    </linearGradient>
  </defs>
</svg>