<svg width="64" height="64" viewBox="0 0 64 64" fill="none" xmlns="http://www.w3.org/2000/svg">
  <!-- Background -->
  <rect width="64" height="64" rx="14" fill="url(#whatsappBg)"/>
  
  <!-- WhatsApp circle -->
  <circle cx="32" cy="32" r="20" fill="white"/>
  
  <!-- WhatsApp logo -->
  <path d="M32 16C23.163 16 16 23.163 16 32C16 34.775 16.775 37.375 18.15 39.625L16.5 47.5L24.625 45.9C26.8 47.175 29.325 48 32 48C40.837 48 48 40.837 48 32C48 23.163 40.837 16 32 16Z" fill="url(#whatsappGreen)"/>
  
  <!-- Phone icon -->
  <path d="M38.5 35.5C38.2 35.2 37.1 34.7 36.8 34.6C36.5 34.5 36.3 34.4 36 34.7C35.7 35 35.3 35.5 35.1 35.7C34.9 36 34.6 36 34.3 35.9C33.1 35.3 32 34.6 31.1 33.7C30.2 32.8 29.5 31.7 28.9 30.5C28.8 30.2 29 29.9 29.3 29.7C29.5 29.5 29.8 29.1 30.1 28.9C30.4 28.7 30.5 28.5 30.6 28.2C30.7 27.9 30.6 27.7 30.5 27.5C30.4 27.3 29.9 26.2 29.6 25.5C29.3 24.8 29 24.9 28.7 24.9C28.5 24.9 28.2 24.9 28 24.9C27.7 24.9 27.2 25 26.8 25.4C26.4 25.8 25.5 26.7 25.5 28.8C25.5 30.9 27 32.9 27.2 33.2C27.4 33.5 29.9 37.4 33.8 39.2C37.7 41 37.7 40.4 38.4 40.3C39.1 40.2 40.7 39.3 41 38.4C41.3 37.5 41.3 36.7 41.2 36.5C41.1 36.3 38.8 35.8 38.5 35.5Z" fill="white"/>
  
  <!-- Shadow -->
  <ellipse cx="32" cy="62" rx="24" ry="2" fill="black" opacity="0.15"/>
  
  <defs>
    <linearGradient id="whatsappBg" x1="32" y1="0" x2="32" y2="64" gradientUnits="userSpaceOnUse">
      <stop stop-color="#10B981"/>
      <stop offset="1" stop-color="#059669"/>
    </linearGradient>
    <linearGradient id="whatsappGreen" x1="32" y1="16" x2="32" y2="48" gradientUnits="userSpaceOnUse">
      <stop stop-color="#22C55E"/>
      <stop offset="1" stop-color="#16A34A"/>
    </linearGradient>
  </defs>
</svg>